<svg width="286" height="87" viewBox="0 0 286 87" fill="none" xmlns="http://www.w3.org/2000/svg">
<path d="M13.9795 48.3217C11.3111 48.3217 8.92141 47.6257 6.81054 46.2337C4.7395 44.8019 3.08665 42.8532 1.85199 40.3874C0.617329 37.8818 0 35.0581 0 31.9162C0 28.6947 0.617329 25.8511 1.85199 23.3853C3.08665 20.9195 4.77933 18.9906 6.93002 17.5986C9.08072 16.1669 11.5301 15.451 14.2782 15.451C15.7917 15.451 17.1657 15.6697 18.4004 16.1072C19.6749 16.5447 20.7901 17.1612 21.7459 17.9566C22.7018 18.7122 23.5183 19.6071 24.1953 20.6411C24.8724 21.6354 25.3703 22.7092 25.6889 23.8626L23.7174 23.6239V16.1072H33.2163V47.7848H23.5382V40.1487L25.6889 40.0891C25.3703 41.2027 24.8525 42.2566 24.1356 43.2509C23.4187 44.2452 22.5425 45.1201 21.507 45.8758C20.4714 46.6314 19.3164 47.228 18.042 47.6654C16.7675 48.1029 15.4133 48.3217 13.9795 48.3217ZM16.6082 40.2681C18.0818 40.2681 19.3563 39.93 20.4316 39.2539C21.507 38.5778 22.3433 37.6233 22.9408 36.3904C23.5382 35.1177 23.8369 33.6263 23.8369 31.9162C23.8369 30.206 23.5382 28.7345 22.9408 27.5016C22.3433 26.2289 21.507 25.2545 20.4316 24.5784C19.3563 23.8626 18.0818 23.5046 16.6082 23.5046C15.1744 23.5046 13.9198 23.8626 12.8444 24.5784C11.8089 25.2545 10.9924 26.2289 10.395 27.5016C9.79762 28.7345 9.49891 30.206 9.49891 31.9162C9.49891 33.6263 9.79762 35.1177 10.395 36.3904C10.9924 37.6233 11.8089 38.5778 12.8444 39.2539C13.9198 39.93 15.1744 40.2681 16.6082 40.2681Z" fill="#1C1C1E"/>
<path d="M52.3285 48.441C49.9786 48.441 47.9673 47.9438 46.2946 46.9496C44.6616 45.9155 43.3872 44.444 42.4711 42.535C41.5949 40.626 41.1568 38.3392 41.1568 35.6745V16.1072H50.7752V34.3621C50.7752 35.6347 50.9743 36.7284 51.3726 37.6432C51.7709 38.5579 52.3683 39.2738 53.1649 39.7908C53.9614 40.2681 54.9173 40.5067 56.0325 40.5067C56.8688 40.5067 57.6256 40.3675 58.3026 40.0891C59.0195 39.8107 59.617 39.4329 60.0949 38.9556C60.6126 38.4386 61.0109 37.8619 61.2897 37.2256C61.5685 36.5495 61.7079 35.8137 61.7079 35.0183V16.1072H71.3263V47.7848H62.3053L61.8871 41.2822L63.6794 40.5663C63.2014 42.0776 62.4049 43.4298 61.2897 44.623C60.1745 45.7763 58.8403 46.7109 57.287 47.4268C55.7337 48.1029 54.0809 48.441 52.3285 48.441Z" fill="#1C1C1E"/>
<path d="M82.9222 47.7848V8.11327H92.4809V47.7848H82.9222ZM77.3065 24.4591V16.1072H98.6343V24.4591H77.3065Z" fill="#1C1C1E"/>
<path d="M119.368 48.3813C115.863 48.3813 112.816 47.6853 110.227 46.2934C107.639 44.8616 105.627 42.9327 104.193 40.5067C102.76 38.0409 102.043 35.237 102.043 32.0951C102.043 29.6691 102.441 27.4419 103.238 25.4136C104.034 23.3853 105.149 21.6354 106.583 20.1639C108.017 18.6526 109.71 17.4992 111.661 16.7038C113.653 15.8686 115.823 15.451 118.173 15.451C120.403 15.451 122.435 15.8487 124.267 16.6441C126.139 17.4396 127.752 18.5531 129.106 19.9849C130.46 21.4166 131.495 23.1069 132.212 25.0557C132.929 27.0045 133.248 29.1322 133.168 31.4389L133.108 34.0041H107.838L106.464 28.6351H125.342L124.326 29.7685V28.5754C124.247 27.5811 123.928 26.7062 123.371 25.9505C122.853 25.1551 122.156 24.5387 121.28 24.1012C120.403 23.6637 119.408 23.445 118.293 23.445C116.739 23.445 115.405 23.7631 114.29 24.3995C113.214 24.996 112.398 25.8909 111.84 27.084C111.283 28.2374 111.004 29.6691 111.004 31.3793C111.004 33.1292 111.362 34.6604 112.079 35.9728C112.836 37.2455 113.911 38.2397 115.305 38.9556C116.739 39.6715 118.432 40.0294 120.383 40.0294C121.738 40.0294 122.932 39.8306 123.968 39.4329C125.043 39.0352 126.198 38.3591 127.433 37.4046L131.914 43.7281C130.679 44.8019 129.365 45.6769 127.971 46.353C126.577 47.0291 125.143 47.5263 123.669 47.8444C122.235 48.2024 120.802 48.3813 119.368 48.3813Z" fill="#1C1C1E"/>
<path d="M139.706 47.7848V16.1072H148.787L149.086 22.5501L147.174 23.266C147.612 21.8342 148.389 20.5417 149.504 19.3883C150.659 18.1952 152.033 17.2407 153.626 16.5248C155.219 15.8089 156.892 15.451 158.644 15.451C161.034 15.451 163.045 15.9481 164.678 16.9424C166.311 17.8969 167.546 19.3486 168.382 21.2973C169.218 23.2063 169.637 25.5528 169.637 28.3368V47.7848H160.018V29.1123C160.018 27.8396 159.839 26.7857 159.481 25.9505C159.122 25.1153 158.565 24.4989 157.808 24.1012C157.091 23.6637 156.195 23.4648 155.119 23.5046C154.283 23.5046 153.506 23.6438 152.79 23.9222C152.073 24.1608 151.455 24.5387 150.938 25.0557C150.42 25.5329 150.002 26.0897 149.683 26.7261C149.404 27.3624 149.265 28.0584 149.265 28.814V47.7848H144.545C143.43 47.7848 142.474 47.7848 141.678 47.7848C140.881 47.7848 140.224 47.7848 139.706 47.7848Z" fill="#1C1C1E"/>
<path d="M180.705 47.7848V8.11327H190.263V47.7848H180.705ZM175.089 24.4591V16.1072H196.417V24.4591H175.089Z" fill="#1C1C1E"/>
<path d="M202.865 47.7848V16.1072H212.424V47.7848H202.865ZM207.644 9.8433C205.852 9.8433 204.438 9.42571 203.403 8.59052C202.407 7.71556 201.909 6.48266 201.909 4.89182C201.909 3.46007 202.427 2.28683 203.463 1.3721C204.498 0.457366 205.892 0 207.644 0C209.437 0 210.831 0.43748 211.826 1.31244C212.822 2.14763 213.32 3.34076 213.32 4.89182C213.32 6.36335 212.802 7.55648 211.767 8.47121C210.771 9.38594 209.397 9.8433 207.644 9.8433Z" fill="#1C1C1E"/>
<path d="M235.773 48.3813C232.706 48.3813 229.958 47.6654 227.529 46.2337C225.099 44.8019 223.167 42.8532 221.734 40.3874C220.34 37.8818 219.643 35.0581 219.643 31.9162C219.643 28.7743 220.34 25.9704 221.734 23.5046C223.167 20.999 225.099 19.0304 227.529 17.5986C229.958 16.1669 232.706 15.451 235.773 15.451C238.601 15.451 241.189 15.9481 243.539 16.9424C245.929 17.9367 247.821 19.3287 249.215 21.1184L244.017 27.3226C243.46 26.6863 242.802 26.0897 242.046 25.5329C241.289 24.9761 240.453 24.5387 239.537 24.2205C238.621 23.9023 237.665 23.7432 236.669 23.7432C235.156 23.7432 233.821 24.1012 232.666 24.8171C231.511 25.4932 230.615 26.4477 229.978 27.6806C229.341 28.9135 229.022 30.3253 229.022 31.9162C229.022 33.4275 229.341 34.7996 229.978 36.0325C230.655 37.2654 231.571 38.2397 232.726 38.9556C233.881 39.6715 235.195 40.0294 236.669 40.0294C237.705 40.0294 238.66 39.9101 239.537 39.6715C240.413 39.3931 241.209 38.9954 241.926 38.4784C242.683 37.9613 243.38 37.325 244.017 36.5694L249.155 42.8333C247.801 44.5434 245.909 45.8956 243.48 46.8899C241.09 47.8842 238.521 48.3813 235.773 48.3813Z" fill="#1C1C1E"/>
<path d="M266.565 48.3217C263.897 48.3217 261.507 47.6257 259.396 46.2337C257.325 44.8019 255.672 42.8532 254.437 40.3874C253.203 37.8818 252.585 35.0581 252.585 31.9162C252.585 28.6947 253.203 25.8511 254.437 23.3853C255.672 20.9195 257.365 18.9906 259.515 17.5986C261.666 16.1669 264.116 15.451 266.864 15.451C268.377 15.451 269.751 15.6697 270.986 16.1072C272.26 16.5447 273.376 17.1612 274.331 17.9566C275.287 18.7122 276.104 19.6071 276.781 20.6411C277.458 21.6354 277.956 22.7092 278.274 23.8626L276.303 23.6239V16.1072H285.802V47.7848H276.124V40.1487L278.274 40.0891C277.956 41.2027 277.438 42.2566 276.721 43.2509C276.004 44.2452 275.128 45.1201 274.092 45.8758C273.057 46.6314 271.902 47.228 270.627 47.6654C269.353 48.1029 267.999 48.3217 266.565 48.3217ZM269.194 40.2681C270.667 40.2681 271.942 39.93 273.017 39.2539C274.092 38.5778 274.929 37.6233 275.526 36.3904C276.124 35.1177 276.422 33.6263 276.422 31.9162C276.422 30.206 276.124 28.7345 275.526 27.5016C274.929 26.2289 274.092 25.2545 273.017 24.5784C271.942 23.8626 270.667 23.5046 269.194 23.5046C267.76 23.5046 266.505 23.8626 265.43 24.5784C264.394 25.2545 263.578 26.2289 262.98 27.5016C262.383 28.7345 262.084 30.206 262.084 31.9162C262.084 33.6263 262.383 35.1177 262.98 36.3904C263.578 37.6233 264.394 38.5778 265.43 39.2539C266.505 39.93 267.76 40.2681 269.194 40.2681Z" fill="#1C1C1E"/>
<line y1="76.9109" x2="41.9547" y2="76.9109" stroke="#1C1C1E"/>
<path d="M65.383 87C64.0864 87 62.8963 86.7691 61.8129 86.3073C60.7294 85.8455 59.788 85.1883 58.9888 84.3358C58.1895 83.4654 57.5678 82.4441 57.1238 81.2719C56.6975 80.0996 56.4844 78.8119 56.4844 77.4087C56.4844 76.0766 56.7153 74.8421 57.1771 73.7054C57.6566 72.5509 58.3138 71.5385 59.1486 70.6681C59.9834 69.7978 60.9514 69.1229 62.0527 68.6433C63.1539 68.1637 64.3439 67.924 65.6228 67.924C66.5286 67.924 67.4078 68.066 68.2604 68.3502C69.1307 68.6167 69.9122 68.9985 70.6049 69.4959C71.3154 69.9754 71.8926 70.526 72.3367 71.1477L70.4184 73.1459C69.9033 72.6308 69.3794 72.2045 68.8465 71.867C68.3314 71.5118 67.7986 71.2454 67.248 71.0678C66.7151 70.8902 66.1734 70.8013 65.6228 70.8013C64.7524 70.8013 63.9354 70.9701 63.1717 71.3076C62.4257 71.6273 61.7685 72.0802 61.2001 72.6663C60.6495 73.2525 60.2143 73.954 59.8946 74.7711C59.5749 75.5704 59.4151 76.4496 59.4151 77.4087C59.4151 78.4211 59.566 79.3447 59.868 80.1795C60.1877 80.9966 60.6317 81.6981 61.2001 82.2843C61.7685 82.8704 62.4434 83.3233 63.2249 83.6431C64.0242 83.945 64.9034 84.096 65.8625 84.096C66.4487 84.096 67.0259 84.016 67.5943 83.8562C68.1627 83.6963 68.6955 83.4654 69.1929 83.1635C69.6902 82.8615 70.1431 82.5063 70.5516 82.0978L71.9903 84.4423C71.5818 84.9219 71.0223 85.3571 70.3119 85.7478C69.6191 86.1386 68.8376 86.4494 67.9673 86.6803C67.1147 86.8934 66.2533 87 65.383 87Z" fill="#1C1C1E"/>
<path d="M77.5873 86.7336L84.8074 68.0838H87.7381L94.9049 86.7336H91.841L87.5782 75.4904C87.5249 75.3661 87.4184 75.0642 87.2585 74.5846C87.1164 74.105 86.9477 73.5722 86.7523 72.986C86.5569 72.3999 86.3793 71.867 86.2194 71.3875C86.0596 70.8902 85.953 70.5704 85.8997 70.4284L86.5125 70.4017C86.4059 70.7037 86.2727 71.0855 86.1129 71.5473C85.9708 72.0091 85.8109 72.4976 85.6333 73.0127C85.4734 73.5278 85.3136 74.0162 85.1537 74.478C84.9939 74.9221 84.8607 75.2951 84.7541 75.597L80.5179 86.7336H77.5873ZM80.7844 82.0978L81.8501 79.327H90.3224L91.5479 82.0978H80.7844Z" fill="#1C1C1E"/>
<path d="M101.82 86.7336V68.0838H109.76C110.825 68.0838 111.802 68.3502 112.69 68.8831C113.596 69.3982 114.316 70.1086 114.848 71.0145C115.381 71.9026 115.648 72.9061 115.648 74.0251C115.648 75.0375 115.381 75.9789 114.848 76.8492C114.316 77.7195 113.605 78.4211 112.717 78.954C111.829 79.4691 110.843 79.7266 109.76 79.7266H104.698V86.7336H101.82ZM112.904 86.7336L108.161 78.3145L111.118 77.6485L116.394 86.7602L112.904 86.7336ZM104.698 76.9558H110.026C110.541 76.9558 111.003 76.8314 111.412 76.5828C111.82 76.3164 112.14 75.9611 112.371 75.5171C112.602 75.0553 112.717 74.5491 112.717 73.9985C112.717 73.3768 112.566 72.8351 112.264 72.3733C111.98 71.8937 111.571 71.5207 111.039 71.2543C110.523 70.9878 109.937 70.8546 109.28 70.8546H104.698V76.9558Z" fill="#1C1C1E"/>
<path d="M135.078 86.7336V68.0838H142.672C143.684 68.0838 144.599 68.3414 145.416 68.8564C146.251 69.3538 146.917 70.0376 147.414 70.9079C147.911 71.7782 148.16 72.7463 148.16 73.812C148.16 74.8777 147.911 75.8457 147.414 76.716C146.917 77.5863 146.251 78.2879 145.416 78.8208C144.599 79.3358 143.684 79.5934 142.672 79.5934H137.956V86.7336H135.078ZM137.956 76.8226H142.618C143.098 76.8226 143.533 76.6893 143.924 76.4229C144.315 76.1387 144.625 75.7746 144.856 75.3306C145.105 74.8688 145.229 74.3626 145.229 73.812C145.229 73.2613 145.105 72.764 144.856 72.32C144.625 71.8759 144.315 71.5207 143.924 71.2543C143.533 70.9878 143.098 70.8546 142.618 70.8546H137.956V76.8226Z" fill="#1C1C1E"/>
<path d="M151.909 86.7336L159.129 68.0838H162.06L169.227 86.7336H166.163L161.9 75.4904C161.847 75.3661 161.74 75.0642 161.58 74.5846C161.438 74.105 161.27 73.5722 161.074 72.986C160.879 72.3999 160.701 71.867 160.541 71.3875C160.381 70.8902 160.275 70.5704 160.222 70.4284L160.834 70.4017C160.728 70.7037 160.595 71.0855 160.435 71.5473C160.293 72.0091 160.133 72.4976 159.955 73.0127C159.795 73.5278 159.635 74.0162 159.476 74.478C159.316 74.9221 159.183 75.2951 159.076 75.597L154.84 86.7336H151.909ZM155.106 82.0978L156.172 79.327H164.644L165.87 82.0978H155.106Z" fill="#1C1C1E"/>
<path d="M176.142 86.7336V68.0838H184.082C185.147 68.0838 186.124 68.3502 187.012 68.8831C187.918 69.3982 188.637 70.1086 189.17 71.0145C189.703 71.9026 189.97 72.9061 189.97 74.0251C189.97 75.0375 189.703 75.9789 189.17 76.8492C188.637 77.7195 187.927 78.4211 187.039 78.954C186.151 79.4691 185.165 79.7266 184.082 79.7266H179.02V86.7336H176.142ZM187.225 86.7336L182.483 78.3145L185.44 77.6485L190.716 86.7602L187.225 86.7336ZM179.02 76.9558H184.348C184.863 76.9558 185.325 76.8314 185.733 76.5828C186.142 76.3164 186.462 75.9611 186.693 75.5171C186.923 75.0553 187.039 74.5491 187.039 73.9985C187.039 73.3768 186.888 72.8351 186.586 72.3733C186.302 71.8937 185.893 71.5207 185.36 71.2543C184.845 70.9878 184.259 70.8546 183.602 70.8546H179.02V76.9558Z" fill="#1C1C1E"/>
<path d="M201.323 86.7336V70.8546H196.101V68.0838H209.582V70.8546H204.201V86.7336H201.323Z" fill="#1C1C1E"/>
<path d="M222.518 87C221.506 87 220.564 86.8668 219.694 86.6004C218.842 86.3339 218.06 85.9343 217.35 85.4015C216.657 84.8508 216.035 84.1759 215.485 83.3766L217.456 81.112C218.326 82.3553 219.161 83.2168 219.961 83.6963C220.76 84.1759 221.71 84.4157 222.811 84.4157C223.486 84.4157 224.099 84.3091 224.65 84.096C225.2 83.8828 225.635 83.5898 225.955 83.2168C226.275 82.8438 226.435 82.4175 226.435 81.9379C226.435 81.6182 226.381 81.3163 226.275 81.0321C226.168 80.7479 226 80.4904 225.769 80.2594C225.555 80.0285 225.271 79.8154 224.916 79.62C224.579 79.4246 224.179 79.2559 223.717 79.1138C223.255 78.954 222.723 78.8208 222.119 78.7142C221.16 78.5188 220.325 78.2613 219.614 77.9415C218.904 77.6218 218.309 77.2222 217.829 76.7426C217.35 76.2631 216.994 75.7213 216.763 75.1174C216.533 74.4958 216.417 73.8031 216.417 73.0393C216.417 72.2933 216.577 71.6006 216.897 70.9612C217.234 70.3218 217.687 69.7712 218.255 69.3094C218.842 68.8298 219.525 68.4657 220.307 68.217C221.088 67.9506 221.932 67.8174 222.838 67.8174C223.797 67.8174 224.676 67.9417 225.476 68.1904C226.275 68.439 226.985 68.812 227.607 69.3094C228.229 69.7889 228.744 70.3839 229.152 71.0944L227.127 73.0926C226.772 72.5065 226.373 72.018 225.928 71.6273C225.484 71.2187 224.996 70.9168 224.463 70.7214C223.93 70.5083 223.362 70.4017 222.758 70.4017C222.065 70.4017 221.461 70.5083 220.946 70.7214C220.431 70.9346 220.023 71.2365 219.721 71.6273C219.437 72.0003 219.295 72.4443 219.295 72.9594C219.295 73.3324 219.366 73.6787 219.508 73.9985C219.65 74.3004 219.863 74.5757 220.147 74.8244C220.449 75.0553 220.849 75.2684 221.346 75.4638C221.843 75.6414 222.438 75.8013 223.131 75.9434C224.108 76.1565 224.978 76.4318 225.742 76.7693C226.506 77.089 227.154 77.4709 227.687 77.9149C228.22 78.3589 228.619 78.8563 228.886 79.4069C229.17 79.9575 229.312 80.5525 229.312 81.1919C229.312 82.382 229.037 83.4122 228.486 84.2825C227.936 85.1528 227.154 85.8277 226.142 86.3073C225.129 86.7691 223.921 87 222.518 87Z" fill="#1C1C1E"/>
<line x1="243.852" y1="76.9109" x2="285.806" y2="76.9109" stroke="#1C1C1E"/>
</svg>
